<svg xmlns="http://www.w3.org/2000/svg" xmlns:xlink="http://www.w3.org/1999/xlink" width="500" zoomAndPan="magnify" viewBox="0 0 375 374.999991" height="500" preserveAspectRatio="xMidYMid meet" version="1.0"><path fill="#379777" d="M 321.714844 31.328125 C 317.175781 34.34375 310.265625 36.453125 301.820312 36.808594 C 294.035156 35.253906 284.445312 38.878906 284.445312 38.878906 C 284.445312 38.878906 288.890625 35.953125 289.480469 35.273438 C 289.675781 35.039062 290.089844 34.578125 290.945312 33.953125 C 291.75 33.46875 292.605469 32.953125 293.5 32.433594 C 295.570312 31.398438 298.675781 30.203125 303.339844 29.058594 C 314.105469 26.378906 320.070312 9.953125 318.925781 8.878906 C 317.765625 7.808594 314.285156 12.628906 306.105469 14.183594 C 297.925781 15.738281 293.675781 20.203125 292.355469 27.46875 C 291.070312 34.628906 283.140625 38.238281 282.890625 38.34375 C 283.050781 38.21875 286.625 35.328125 288.105469 29.253906 C 287.660156 23.148438 290.425781 18.863281 289.230469 18.71875 C 288.035156 18.578125 283.464844 24.273438 283.535156 29.988281 C 283.550781 31.738281 283.105469 33.414062 282.464844 34.898438 C 282.089844 36.628906 280.980469 39.078125 280.265625 40.21875 C 275.070312 43.433594 269.890625 46.789062 265 50.128906 C 262.160156 52.078125 259.320312 54.039062 256.535156 56.039062 C 255.75 56.488281 255.214844 56.863281 255 57.148438 C 254.570312 57.453125 254.140625 57.773438 253.714844 58.078125 C 267.425781 29.828125 262.695312 25.96875 262.695312 25.96875 C 251.390625 37.578125 251.515625 55.59375 252.589844 58.878906 C 242.75 66.078125 233.214844 73.664062 224 81.59375 C 236.089844 48.664062 230.410156 44.953125 230.410156 44.953125 C 219.070312 59.289062 221.679688 79.683594 223.214844 82.273438 C 214.855469 89.488281 206.765625 97.003906 198.929688 104.773438 C 212.140625 62.898438 204.839844 58.558594 204.839844 58.558594 C 191.410156 77.238281 196.035156 102.808594 198.089844 105.613281 C 190.160156 113.488281 182.515625 121.648438 175.125 130.039062 C 188.765625 79.09375 179.714844 74.238281 179.714844 74.238281 C 164.714844 97.058594 170.730469 126.898438 173.554688 131.84375 C 164.589844 142.113281 156 152.738281 147.820312 163.664062 C 159.890625 92.078125 146.875 86.59375 146.875 86.59375 C 129.304688 119.828125 141.605469 159.988281 146.035156 166.058594 C 140.5 173.523438 135.160156 181.113281 129.980469 188.84375 C 131.214844 174.933594 128.839844 144.039062 108.945312 122.34375 C 108.945312 122.34375 98.265625 130.523438 126.75 193.71875 C 120.730469 202.878906 114.980469 212.199219 109.464844 221.683594 C 99.230469 158.648438 86.625 157.683594 86.625 157.683594 C 81.429688 188.648438 99.089844 217.488281 106.929688 226.09375 C 106.105469 227.523438 105.285156 228.96875 104.480469 230.414062 C 103.804688 231.113281 103.5 231.628906 103.605469 231.96875 C 97 243.824219 90.75 255.878906 84.894531 268.09375 C 70.394531 207.488281 58.214844 207.503906 58.214844 207.503906 C 55.5 238.488281 76.464844 265.378906 83.480469 271.058594 C 78.535156 281.488281 73.855469 292.023438 69.464844 302.648438 C 68.660156 296.609375 63.660156 281.183594 50.785156 273.164062 C 50.785156 273.164062 46.839844 278.433594 68.695312 304.539062 C 67.769531 306.808594 66.839844 309.09375 65.929688 311.359375 C 59.355469 328.109375 53.269531 345.09375 48.535156 362.46875 C 48.25 363.539062 48.910156 364.648438 49.980469 364.914062 C 51.054688 365.183594 52.144531 364.539062 52.410156 363.46875 C 52.679688 362.414062 52.964844 361.324219 53.25 360.253906 C 54.125 357.023438 55.070312 353.824219 56.035156 350.628906 C 60.839844 335.378906 66.230469 320.183594 72.195312 305.148438 C 142.355469 301.109375 144.695312 287.683594 144.695312 287.683594 C 114.839844 279.699219 84.929688 293.308594 73.945312 300.808594 C 77.375 292.34375 80.980469 283.949219 84.769531 275.59375 C 84.910156 275.648438 85.105469 275.664062 85.375 275.628906 C 176.054688 265.503906 178.070312 248.058594 178.070312 248.058594 C 135.070312 239.183594 93.980469 264.683594 85.929688 273.074219 C 92.265625 259.289062 99.089844 245.683594 106.429688 232.324219 C 206.929688 231.378906 211.160156 212.414062 211.160156 212.414062 C 169.5 199.164062 126.339844 216.324219 110.214844 226.238281 C 110.179688 226.039062 110.160156 225.863281 110.125 225.683594 C 115.214844 216.664062 120.515625 207.773438 126.054688 199.039062 C 126.214844 199.074219 126.390625 199.113281 126.625 199.113281 C 239.285156 199.273438 244.175781 178.164062 244.175781 178.164062 C 194.410156 161.863281 142.355469 185.199219 128.910156 195.058594 C 129.015625 194.789062 129.105469 194.46875 129.195312 194.09375 C 135.625 184.148438 142.355469 174.398438 149.375 164.863281 C 241.589844 164.914062 245.605469 147.613281 245.605469 147.613281 C 207.140625 135.023438 167.015625 151.148438 153.070312 159.898438 C 160.75 149.703125 168.785156 139.773438 177.140625 130.164062 C 243.625 130.183594 246.535156 117.703125 246.535156 117.703125 C 219.890625 108.96875 192.140625 119.328125 181 125.773438 C 188.160156 117.71875 195.554688 109.898438 203.179688 102.34375 C 203.265625 102.378906 203.375 102.414062 203.535156 102.433594 C 265.230469 108.488281 269.035156 97.183594 269.035156 97.183594 C 243.175781 85.863281 214.125 95.238281 205.515625 100.039062 C 213.179688 92.539062 221.089844 85.308594 229.214844 78.363281 C 228.980469 78.664062 229.070312 78.84375 229.5 78.898438 C 277.410156 83.613281 280.355469 74.828125 280.355469 74.828125 C 259.125 65.523438 235.089844 74.21875 230.054688 77.648438 C 237.480469 71.328125 245.089844 65.253906 252.890625 59.433594 C 253 59.523438 253.105469 59.46875 253.214844 59.253906 C 253.230469 59.21875 253.25 59.183594 253.265625 59.148438 C 253.945312 58.648438 254.625 58.148438 255.300781 57.648438 C 296.105469 61.648438 298.625 54.183594 298.625 54.183594 C 283.515625 47.558594 266.75 51.628906 259.140625 54.863281 C 261.175781 53.398438 263.230469 51.933594 265.300781 50.503906 C 270.050781 47.203125 275.070312 43.878906 280.105469 40.683594 C 281.464844 40.363281 285.035156 40.773438 285.875 40.863281 L 286.050781 40.878906 C 288.640625 41.164062 292.089844 42.039062 296.785156 43.953125 C 307.839844 48.433594 316.570312 39.683594 319.660156 36.363281 C 322.75 33.039062 327.390625 30.914062 327.800781 30.09375 C 328.160156 29.253906 325.980469 29.378906 321.714844 31.328125 Z M 321.714844 31.328125 " fill-opacity="1" fill-rule="nonzero"/><path fill="#379777" d="M 261.214844 214.558594 C 259.195312 217.128906 257.605469 221.148438 257 226.183594 C 257.570312 230.914062 254.945312 236.46875 254.945312 236.46875 C 254.945312 236.46875 256.910156 233.949219 257.339844 233.628906 C 257.480469 233.523438 257.785156 233.308594 258.195312 232.824219 C 258.515625 232.378906 258.875 231.878906 259.214844 231.363281 C 259.925781 230.164062 260.785156 228.363281 261.695312 225.648438 C 263.800781 219.34375 273.890625 216.539062 274.480469 217.289062 C 275.070312 218.039062 272.015625 219.878906 270.714844 224.699219 C 269.390625 229.523438 266.535156 231.84375 262.125 232.289062 C 257.785156 232.71875 255.25 237.289062 255.175781 237.433594 C 255.265625 237.34375 257.160156 235.34375 260.855469 234.738281 C 264.480469 235.289062 267.175781 233.824219 267.214844 234.558594 C 267.25 235.289062 263.625 237.738281 260.214844 237.433594 C 259.160156 237.324219 258.140625 237.523438 257.230469 237.84375 C 256.175781 237.988281 254.660156 238.523438 253.945312 238.898438 C 251.785156 241.863281 249.535156 244.789062 247.300781 247.558594 C 246.015625 249.164062 244.695312 250.753906 243.375 252.34375 C 243.070312 252.789062 242.820312 253.09375 242.640625 253.199219 C 242.425781 253.449219 242.230469 253.683594 242.015625 253.933594 C 259.535156 247.058594 261.625 250.074219 261.625 250.074219 C 254.160156 256.273438 243.390625 255.363281 241.480469 254.558594 C 236.714844 260.113281 231.730469 265.449219 226.570312 270.574219 C 246.820312 264.898438 248.765625 268.46875 248.765625 268.46875 C 239.660156 274.574219 227.605469 272.058594 226.125 271.003906 C 221.410156 275.664062 216.554688 280.148438 211.535156 284.46875 C 237.175781 278.539062 239.425781 283.113281 239.425781 283.113281 C 227.625 290.253906 212.570312 286.289062 211 284.933594 C 205.910156 289.289062 200.695312 293.484375 195.320312 297.503906 C 226.410156 291.753906 228.875 297.378906 228.875 297.378906 C 214.535156 305.273438 196.980469 300.273438 194.160156 298.359375 C 187.605469 303.234375 180.855469 307.859375 173.929688 312.253906 C 217.285156 308.398438 219.945312 316.433594 219.945312 316.433594 C 199.25 325.378906 175.839844 316.128906 172.429688 313.199219 C 167.714844 316.148438 162.910156 318.984375 158.054688 321.71875 C 166.429688 321.628906 184.785156 324.503906 196.804688 337.414062 C 196.804688 337.414062 191.410156 343.414062 154.980469 323.414062 C 149.230469 326.574219 143.375 329.574219 137.464844 332.433594 C 174.640625 341.503906 174.640625 349.09375 174.640625 349.09375 C 155.890625 350.734375 139.480469 338.824219 134.714844 333.753906 C 133.820312 334.183594 132.910156 334.59375 132.015625 335.003906 C 131.570312 335.378906 131.25 335.523438 131.054688 335.449219 C 123.660156 338.84375 116.160156 342.003906 108.589844 344.933594 C 144.125 356.433594 143.554688 363.71875 143.554688 363.71875 C 124.910156 363.878906 109.820312 350.09375 106.765625 345.628906 C 100.304688 348.09375 93.785156 350.398438 87.230469 352.523438 C 90.804688 353.289062 99.785156 357.003906 103.980469 365.074219 C 103.980469 365.074219 100.640625 367.183594 86.070312 352.898438 C 84.660156 353.34375 83.269531 353.789062 81.855469 354.234375 C 71.535156 357.378906 61.105469 360.21875 50.5 362.21875 C 49.839844 362.34375 49.214844 361.898438 49.105469 361.234375 C 49 360.574219 49.429688 359.96875 50.089844 359.859375 C 50.730469 359.753906 51.394531 359.628906 52.054688 359.503906 C 54.019531 359.128906 55.980469 358.71875 57.945312 358.289062 C 67.285156 356.128906 76.605469 353.628906 85.894531 350.773438 C 91.605469 309.039062 99.730469 308.273438 99.730469 308.273438 C 103.089844 326.484375 93.554688 343.734375 88.554688 349.933594 C 93.765625 348.289062 98.964844 346.523438 104.125 344.648438 C 104.105469 344.558594 104.105469 344.433594 104.125 344.289062 C 114.445312 290.574219 124.945312 290.183594 124.945312 290.183594 C 128.230469 316.289062 111.054688 339.648438 105.660156 344.074219 C 114.195312 340.933594 122.640625 337.484375 130.964844 333.734375 C 136.25 273.71875 147.785156 272.09375 147.785156 272.09375 C 153.75 297.609375 141.464844 322.59375 134.785156 331.773438 C 134.890625 331.789062 135 331.824219 135.125 331.84375 C 140.75 329.21875 146.304688 326.46875 151.804688 323.574219 C 151.785156 323.484375 151.785156 323.359375 151.785156 323.234375 C 156.980469 255.898438 169.820312 253.96875 169.820312 253.96875 C 177.214844 284.46875 160.839844 314.484375 154.304688 322.058594 C 154.464844 322.003906 154.660156 321.96875 154.890625 321.933594 C 161.140625 318.558594 167.285156 314.984375 173.304688 311.253906 C 177.605469 256.148438 188.140625 254.558594 188.140625 254.558594 C 193.855469 278.128906 182.339844 301.34375 176.445312 309.289062 C 182.910156 305.183594 189.214844 300.84375 195.339844 296.308594 C 198.445312 256.574219 206.054688 255.433594 206.054688 255.433594 C 210.015625 271.773438 202.515625 287.859375 198.140625 294.21875 C 203.285156 290.324219 208.304688 286.273438 213.195312 282.058594 C 213.179688 282.003906 213.160156 281.933594 213.160156 281.84375 C 212.445312 244.683594 219.375 242.949219 219.375 242.949219 C 224.929688 258.933594 217.964844 275.863281 214.695312 280.773438 C 219.535156 276.539062 224.230469 272.164062 228.765625 267.628906 C 228.570312 267.753906 228.464844 267.683594 228.464844 267.433594 C 227.910156 238.574219 233.285156 237.238281 233.285156 237.238281 C 237.839844 250.363281 231.515625 264.308594 229.230469 267.164062 C 233.355469 263.023438 237.339844 258.753906 241.195312 254.378906 C 241.140625 254.308594 241.179688 254.253906 241.320312 254.199219 C 241.339844 254.199219 241.355469 254.183594 241.390625 254.183594 C 241.730469 253.808594 242.050781 253.414062 242.390625 253.039062 C 241.910156 228.46875 246.5 227.324219 246.5 227.324219 C 249.75 236.664062 246.515625 246.488281 244.230469 250.898438 C 245.214844 249.753906 246.175781 248.59375 247.125 247.414062 C 249.320312 244.738281 251.535156 241.898438 253.675781 239.023438 C 253.925781 238.21875 253.855469 236.074219 253.839844 235.558594 L 253.839844 235.449219 C 253.800781 233.878906 253.425781 231.789062 252.515625 228.898438 C 250.355469 222.074219 256 217.273438 258.125 215.574219 C 260.25 213.878906 261.75 211.21875 262.25 211.003906 C 262.765625 210.808594 262.589844 212.09375 261.214844 214.558594 Z M 261.214844 214.558594 " fill-opacity="1" fill-rule="nonzero"/></svg>